<?xml version="1.0"?>
<svg version="1.1" xmlns="http://www.w3.org/2000/svg" width="230px" height="200px" style=""><path fill="#5d87ff" d="M76.924,85.141l-0.819,6.786c-0.234,1.989-1.521,2.457-3.627,2.457l-21.177,0l0,66.105c0,2.223-0.468,2.691-2.457,2.691l-10.296,0c-2.106,0-2.457-0.468-2.457-2.574l0-66.222l-21.879,0c-1.989,0-2.691-0.819-2.691-2.808l0-6.903c0-1.755,0.819-2.457,2.574-2.457l59.202,0c3.042,0,3.861,0.936,3.627,2.925z M142.7365,139.546c0,16.263-13.221,25.038-28.431,25.038c-7.02,0-15.327-1.287-22.347-3.744c-1.521-0.585-1.989-1.287-1.989-2.223c0-0.468,0-0.936,0.234-1.521l2.457-7.605c0.351-1.17,0.936-1.872,2.106-1.872c0.468,0,1.053,0.117,1.755,0.351c5.499,1.989,11.583,3.51,17.433,3.51c6.318,0,13.455-3.042,13.455-10.413c0-5.382-3.978-8.307-8.541-10.53l-15.21-7.605c-8.307-4.095-13.806-10.998-13.806-20.124c0-14.274,14.04-22.113,27.027-22.113c7.722,0,14.157,1.17,20.943,4.095c1.521,0.702,2.34,1.404,2.34,2.34c0,0.468-0.117,0.936-0.351,1.521l-2.808,7.137c-0.468,1.287-1.17,1.755-1.989,1.755c-0.585,0-1.17-0.234-1.872-0.468c-4.797-1.989-10.764-3.627-15.444-3.627c-5.499,0-11.817,2.34-11.817,8.892c0,4.797,4.446,7.605,8.307,9.477l12.987,6.318c9.243,4.446,15.561,10.647,15.561,21.411z M215.92,107.722c0,18.135-13.689,27.027-30.888,27.027c-0.936,0-6.201-0.234-7.02-0.351l0,25.974c0,1.755-0.702,2.808-2.925,2.808l-9.36,0c-1.872,0-2.808-0.819-2.808-3.159l0-74.646c0-2.34,0.702-3.159,2.925-3.159l16.965,0c12.402,0,21.528,2.34,27.261,8.892c3.744,4.329,5.85,10.296,5.85,16.614z M200.71,108.307c0-10.647-6.552-14.391-16.614-14.391l-6.084,0l0,29.016c0.936,0,6.201,0.117,6.903,0.117c9.945,0,15.795-4.68,15.795-14.742z"/><path fill="#5d87ff" d=""/></svg>
